PathFileType	4	(X/Y/Z)	3_coords_data.trc
DataRate	CameraRate	NumFrames	NumMarkers	Units	OrigDataRate	OrigDataStartFrame	OrigNumFrames
30.0	30.0	8	21	m	30.0	1	64
Frame#	Time	THUMB_TIP	THUMB_IP	THUMB_MCP	THUMB_CMC	INDEX_TIP	INDEX_DIP	INDEX_PIP	INDEX_MCP	MIDDLE_TIP	MIDDLE_DIP	MIDDLE_PIP	MIDDLE_MCP	RING_TIP	RING_DIP	RING_PIP	RING_MCP	PINKY_TIP	PINKY_DIP	PINKY_PIP	PINKY_MCP	WRIST
X1	Y1	Z1	X2	Y2	Z2	X3	Y3	Z3	X4	Y4	Z4	X5	Y5	Z5	X6	Y6	Z6	X7	Y7	Z7	X8	Y8	Z8	X9	Y9	Z9	X10	Y10	Z10	X11	Y11	Z11	X12	Y12	Z12	X13	Y13	Z13	X14	Y14	Z14	X15	Y15	Z15	X16	Y16	Z16	X17	Y17	Z17	X18	Y18	Z18	X19	Y19	Z19	X20	Y20	Z20	X21	Y21	Z21
0	-2.749317978547796e-18	0.5039517022814513	0.0011725634532674944	-0.1648310812258711	0.4948210449864222	-0.004043056941180512	-0.1444000166118634	0.4810136234254555	-0.0181160365566726	-0.12031420430296058	0.4732281660549239	-0.029035155080080255	-0.07776952773581058	0.5105615247247857	-0.02618228938452105	-0.10294718068223141	0.527558888093004	-0.023797385390478043	-0.10872661590273058	0.5353608052458129	-0.004231520097699337	-0.12244947409938711	0.49631065910586725	0.012675502880449718	-0.12075396400940375	0.5033872929809075	-0.017389715724187904	-0.08640993258053031	0.5212739948037906	-0.01661338577020144	-0.08914182015175531	0.5372307497500423	0.004807453297729025	-0.10080111580848783	0.4999766533290143	0.029453229363452627	-0.1017316763766194	0.5044454147732648	-0.0075999208905456195	-0.07411354147559679	0.5223112582751145	-0.0051940335596083465	-0.0739607601997403	0.5374840366722832	0.01358282325981347	-0.08007602165722083	0.5050014427917772	0.03755404869960449	-0.08230812374019836	0.5035460110372835	-0.007598466681343785	-0.06031332996795147	0.5197266424262286	-0.0030377998711437204	-0.057090367650234564	0.5302784497424852	0.015015696290329617	-0.05897256256794614	0.5027570014755787	0.038321247593654906	-0.05952448171063285	0.462283081001861	-0.023011742144276925	-0.051989820119430985
1	0.03333333333333339	0.5037794444881365	0.001281164874608498	-0.16475970257287031	0.4947040326727902	-0.004233205417100039	-0.14438254328439748	0.48051173795781343	-0.01781563695118138	-0.12023888315704245	0.4741143722941473	-0.028695011346439925	-0.07745333740461413	0.5083745333215973	-0.02550881953756634	-0.10331109220569312	0.5254853179201396	-0.023318496711501102	-0.10882684567552003	0.5338493927767473	-0.0039915466333997895	-0.12255714375937987	0.4951249137866238	0.013644651332693436	-0.12082066967542004	0.5035908099950867	-0.01851263038415807	-0.08701621865911247	0.5214681823566315	-0.017223686447154773	-0.08961201930129126	0.5372577716932848	0.004212913471382862	-0.10146826670560916	0.5000380438889458	0.028915835263988776	-0.10224636572200307	0.5042815227580877	-0.007721015446539914	-0.07494041462867274	0.5221482901337675	-0.0053178116451392254	-0.07488353728452435	0.5374040003968672	0.013347343918295895	-0.08113295735050818	0.5049120382289239	0.037349137937887134	-0.0828379829567838	0.5046549810365603	-0.00769720578044486	-0.061431667490077335	0.5210233401229831	-0.003678186531845651	-0.058444309945807404	0.5315930218797791	0.014364012419885441	-0.06033452251221472	0.5038811730544542	0.03744935056581977	-0.06039814931642684	0.4622830810018609	-0.023011742144276925	-0.051989820119430985
2	0.06666666666666676	0.5035758245674062	0.0013366309649435193	-0.16468303252460592	0.49453078819384755	-0.004401888711425217	-0.14435431616264804	0.48005704518821324	-0.017634402607858646	-0.12018343824339273	0.4747007679402536	-0.028423421130634896	-0.07723233379475036	0.5067480785140576	-0.024971600942513494	-0.10359202824334646	0.5239394280028215	-0.022919133385622237	-0.10890661944898816	0.5327151105695856	-0.003777111327948779	-0.1226390707971976	0.49422535329348294	0.014361369783213174	-0.12085857036003866	0.5037488983508861	-0.01939306237914684	-0.08747710328834601	0.5216056921908516	-0.017678495813201467	-0.08996611418585354	0.5372694169740997	0.003764218066132363	-0.10197724641406958	0.5000764618306891	0.028510983633638076	-0.10263268721777918	0.5041471059592321	-0.007814094608918909	-0.07557686103573236	0.5220138908301504	-0.005410379899910112	-0.07558926966266	0.5373349064206234	0.013163725518774982	-0.08194922785214964	0.5048408609194203	0.037188097664195174	-0.08324822130251941	0.5055177656976259	-0.00777379664767619	-0.062308730771289955	0.522018407774437	-0.00418136836429428	-0.05951171985216119	0.5325828668701553	0.013863929911275552	-0.061401543431390926	0.5047205998340304	0.03676516648093531	-0.06106854164739539	0.462283081001861	-0.023011742144276925	-0.051989820119430985
3	0.10000000000000014	0.5034392462109114	0.00135168411161668	-0.16462113793510724	0.49440233620035134	-0.0045476050532248236	-0.14433487054037386	0.4797268801722313	-0.017544636201966446	-0.12015785311296245	0.4750669079789549	-0.028208269467121516	-0.07709439314114674	0.5055976739437312	-0.024574318047774213	-0.10380511268680304	0.5228435663870677	-0.022610154490019796	-0.10897437330620108	0.5319018503520191	-0.0036012691122930263	-0.12270825845595912	0.49357232469938905	0.01486884256538068	-0.12088109347746356	0.5038619744709173	-0.020054293717343685	-0.08781401013430179	0.5216935326530338	-0.018000512805905422	-0.09022596302886898	0.5372699838441418	0.0034408577900577053	-0.10235243593971977	0.5000968238363991	0.028219694086007496	-0.10291222863106486	0.5040423848849692	-0.007885551846154915	-0.07604931093455725	0.5219087356395062	-0.005479289893217443	-0.07610774148905008	0.5372782695545537	0.013024524783739777	-0.08255493069327169	0.5047864780298073	0.037066235498048605	-0.08355516238738381	0.5061606065499533	-0.007830385645135385	-0.06296294426924687	0.5227521718952821	-0.0045588459581803464	-0.060313984573751034	0.5332921563250217	0.013501550536888396	-0.0621962241073265	0.5053177275031946	0.036259227518176285	-0.061561463122479565	0.4622830810018609	-0.023011742144276925	-0.051989820119430985
4	0.13333333333333353	0.5034135798719318	0.0013390774270340966	-0.16458134359130583	0.494365219369426	-0.004667546793289401	-0.14433171056518623	0.4795502219555785	-0.01752227874310741	-0.12016372103096928	0.47526768884722514	-0.02804060238716599	-0.07702539957666732	0.5048474363726196	-0.024308825456225924	-0.10396222314811743	0.5221271093929226	-0.02239057127220645	-0.10903501342536193	0.5313590886058824	-0.0034678581434840483	-0.12277223733194365	0.49312929618639445	0.015202977281110752	-0.1208963455145512	0.5039323638250653	-0.020520946338913215	-0.08804546619238962	0.5217389867102881	-0.018210805341388303	-0.09040924071526957	0.5372625343902773	0.0032238635319436493	-0.10261514042474273	0.5001029625141653	0.02802458749399528	-0.10310322847231701	0.503965927542341	-0.00794028491758958	-0.07638175011102366	0.5218317211745808	-0.00553068231415399	-0.07646679823703972	0.5372342572222992	0.01292286937695375	-0.08297896318291997	0.5047471934496223	0.036978629695374576	-0.0837738952131668	0.5066108417715056	-0.00787014317633039	-0.0634166051140933	0.5232627651683935	-0.004825814843026355	-0.060877803786061335	0.5337624648371454	0.013259452935744542	-0.06274633669617047	0.5057110548730867	0.035915340850940114	-0.06190218457575225	0.4622830810018609	-0.023011742144276925	-0.051989820119430985
5	0.1666666666666669	0.5035057103435787	0.0013102074469831804	-0.16456189698582335	0.4944290266383988	-0.004759347036640382	-0.1443437288866497	0.47952303142273145	-0.017547109860390098	-0.1201961735529512	0.47534331935379603	-0.02791407253404765	-0.07701115193730546	0.5044284880918071	-0.024160613228044303	-0.10407296592813031	0.5217252786406785	-0.022252911417212307	-0.10909110407981781	0.5310407923186439	-0.003375921572266627	-0.1228348405553713	0.4928622786661512	0.015394477912382909	-0.1209088882005338	0.5039644547745732	-0.02081897910306474	-0.0881881804826492	0.5217496693558091	-0.018329184473385496	-0.09053062898825437	0.537249287392828	0.003095402970254957	-0.10278454442685292	0.5000979861265269	0.027909466019989337	-0.10322159154599764	0.5039150776796804	-0.007981982138738575	-0.07659623467592847	0.5217804296352306	-0.005569537793666535	-0.07669273227305196	0.5372020504723771	0.012852332007279366	-0.0832492788329634	0.5047211293785016	0.03692020724851669	-0.0839185921121266	0.506896438266145	-0.007896354980263975	-0.06369557076132937	0.5235861975016095	-0.004999087160445503	-0.06123431582888661	0.5340330050696525	0.013118718418894115	-0.06308400543136816	0.5059357578083556	0.035712736762140984	-0.06211525239649485	0.462283081001861	-0.023011742144276925	-0.051989820119430985
6	0.20000000000000023	0.5036990596016729	0.0012746348557060028	-0.16455523990057874	0.49457991657069944	-0.004821863292704731	-0.14436430280724233	0.4796203010027885	-0.01760233158955027	-0.12024606215470612	0.4753256462471743	-0.027824353978528116	-0.07703777361177366	0.5042770603548091	-0.024111897511285618	-0.10414531582068132	0.521577607909871	-0.02218627953599006	-0.10914362050409765	0.5309041648743278	-0.003322087795236406	-0.12289743590771662	0.49273915643402355	0.015470514293193571	-0.1209209917528159	0.5039645186471263	-0.0209756778216017	-0.08825785781979978	0.5217334671665005	-0.01837455468162641	-0.09060277294118846	0.5372319123606145	0.003038430812354165	-0.1028784317340854	0.5000845411324485	0.027858949248973586	-0.1032816641413441	0.5038863214709111	-0.008013435495819676	-0.07671341499739637	0.5217515299096486	-0.005599959579340341	-0.07681068493642662	0.5371801442694949	0.012806807489488259	-0.08339314374822604	0.5047062865914218	0.03688579727710939	-0.08400277668031941	0.50704569382959	-0.007912004696431163	-0.06382860051574846	0.5237567433621056	-0.00509595368505622	-0.061418065259183696	0.5341411410128303	0.01306002755913499	-0.06324471505928264	0.5060245262684077	0.03562767465979888	-0.062224552987052206	0.4622830810018609	-0.023011742144276925	-0.051989820119430985
7	0.23333333333333361	0.503964063028865	0.0012400814679741634	-0.16455107154577564	0.4947911029089076	-0.004855430666986016	-0.1443842290946078	0.4798055216994199	-0.017673903011606762	-0.12030230386916041	0.4752423000495145	-0.02776863887816894	-0.0770916186633206	0.5043326984654799	-0.024143419346909556	-0.10418605818469273	0.5216264512747835	-0.02217816410397422	-0.10919244266861117	0.5309084901005212	-0.003301893885262752	-0.12295979575000204	0.49272904533831186	0.015456047059740352	-0.12093353240255966	0.5039403243933043	-0.021019627678072417	-0.08826979813958247	0.5216984290957264	-0.018365224078130682	-0.09063704525520688	0.5372117515626281	0.0030363972041976273	-0.1029137297638889	0.5000650059322578	0.027858170836950857	-0.10329682739754231	0.5038755951102084	-0.008036845072286747	-0.07675302245379323	0.5217411130373656	-0.005625454471824387	-0.07684502553217687	0.5371665926693855	0.012780401831491262	-0.08343737040057042	0.504700589084925	0.03687016794608683	-0.08403954462609098	0.5070870812823807	-0.0079197005754168	-0.06384650012047055	0.5238074570474346	-0.005133694974664316	-0.061465910473350704	0.5341229996351473	0.01306411742709468	-0.06326625041665979	0.5060084174745708	0.03563463009374995	-0.06225349235051425	0.462283081001861	-0.023011742144276925	-0.051989820119430985
